<?xml version="1.0" encoding="UTF-8" standalone="no"?>
<!-- Created with Inkscape (http://www.inkscape.org/) -->

<svg
   width="512"
   height="512"
   viewBox="0 0 512 512"
   version="1.1"
   id="svg1"
   xml:space="preserve"
   sodipodi:docname="hera-logo.svg"
   inkscape:version="1.3.2 (091e20e, 2023-11-25)"
   inkscape:export-filename="hera-logo.png"
   inkscape:export-xdpi="96"
   inkscape:export-ydpi="96"
   xmlns:inkscape="http://www.inkscape.org/namespaces/inkscape"
   xmlns:sodipodi="http://sodipodi.sourceforge.net/DTD/sodipodi-0.dtd"
   xmlns="http://www.w3.org/2000/svg"
   xmlns:svg="http://www.w3.org/2000/svg"><sodipodi:namedview
     id="namedview1"
     pagecolor="#ffffff"
     bordercolor="#000000"
     borderopacity="0.25"
     inkscape:showpageshadow="2"
     inkscape:pageopacity="0.0"
     inkscape:pagecheckerboard="0"
     inkscape:deskcolor="#d1d1d1"
     inkscape:document-units="px"
     inkscape:zoom="0.92187502"
     inkscape:cx="78.101694"
     inkscape:cy="275.52542"
     inkscape:window-width="1920"
     inkscape:window-height="1027"
     inkscape:window-x="1920"
     inkscape:window-y="25"
     inkscape:window-maximized="1"
     inkscape:current-layer="g6" /><defs
     id="defs1" /><g
     inkscape:label="Layer 1"
     inkscape:groupmode="layer"
     id="layer1"><g
       id="g6"
       transform="matrix(1,0,0,1.0220468,518.10846,-94.239848)"><path
         style="fill:#fddc56"
         d="m -167.9073,540.92937 c -3.25471,-2.94962 -8.52578,-8.71716 -11.71349,-12.81676 -3.18771,-4.0996 -7.39714,-10.46483 -9.3543,-14.14496 -1.95716,-3.68013 -5.70338,-11.51329 -8.32495,-17.40702 -4.69254,-10.54967 -4.76597,-10.84885 -4.7336,-19.28858 0.0196,-5.11558 0.59248,-10.34338 1.42053,-12.96349 0.76322,-2.41493 2.01705,-5.54028 2.7863,-6.94522 0.76924,-1.40494 2.9185,-3.8148 4.77612,-5.35522 3.37574,-2.79933 3.3813,-2.8005 10.71162,-2.24738 4.03378,0.30437 12.0934,0.78211 17.91027,1.06164 6.59826,0.31709 12.91236,0.124 16.78755,-0.51335 3.41628,-0.56188 8.58105,-2.21446 11.47727,-3.67239 2.89622,-1.45794 6.91046,-4.20407 8.92053,-6.1025 2.01007,-1.89844 4.28251,-4.59836 5.04985,-5.99983 0.76735,-1.40148 2.16721,-4.66746 3.1108,-7.25774 1.02947,-2.82603 1.71562,-7.05593 1.71562,-10.57629 0,-5.68826 0.10896,-5.96958 3.58246,-9.25017 1.97035,-1.86092 4.24659,-4.59647 5.05832,-6.079 0.81173,-1.48253 2.07924,-5.42858 2.81669,-8.76899 0.79101,-3.58302 1.12011,-7.85722 0.80256,-10.42346 -0.53827,-4.34997 -0.53827,-4.34997 5.30607,-7.93954 4.814131,-2.95683 6.289965,-4.44982 8.372358,-8.46969 2.392093,-4.61773 2.475702,-5.16857 1.555011,-10.24501 -0.535154,-2.9507 -2.034965,-7.36179 -3.332913,-9.80242 -1.297948,-2.44064 -4.134917,-6.63091 -6.304375,-9.31171 -2.169461,-2.68081 -6.921891,-9.0809 -10.560961,-14.22243 -3.63908,-5.14153 -7.60021,-11.37761 -8.80252,-13.85795 -1.20232,-2.48034 -2.81041,-7.14639 -3.57354,-10.36898 -0.92991,-3.9269 -1.62593,-13.77558 -2.11043,-29.86283 -0.53542,-17.7776 -1.1329,-25.67124 -2.30351,-30.4331 -0.86932,-3.53624 -2.22154,-7.8918 -3.00494,-9.67902 -0.7834,-1.78722 -4.11195,-5.78894 -7.39678,-8.8927 -3.28483,-3.10376 -9.64852,-8.06216 -14.14154,-11.01867 -4.49302,-2.95651 -10.64471,-6.56145 -13.67041,-8.01099 -3.0257,-1.44953 -9.96946,-4.43577 -15.43058,-6.63609 -5.46112,-2.20032 -13.19696,-5.08252 -17.19076,-6.4049 -3.9938,-1.32238 -11.55024,-3.2478 -16.7921,-4.27872 -6.07567,-1.1949 -14.71235,-1.86956 -23.79668,-2.40953 -10.87436,-0.64637 -18.79944,-1.08069 -18.79944,-1.08069 l 0.42542,-82.707998 240.778178,125.457778 -0.32425,243.60242 -145.795278,80.70234 c 0,0 -0.63234,-0.59942 -5.90613,-5.37886 z"
         id="path8"
         sodipodi:nodetypes="sssssssssssssssssssssssssssssssssssssscccccss" /><path
         style="fill:#4c83ae"
         d="m -505.987,463.01483 -0.1058,-227.45154 249.45093,-139.179549 -0.41753,82.869349 c -17.29428,2.58239 -26.93347,3.45038 -51.92958,14.88915 -24.99611,11.43878 -39.17662,26.50908 -46.76356,36.89828 -7.58695,10.38919 -9.33223,16.01007 -13.11157,26.58782 -2.57574,7.2091 -2.33747,7.51535 -9.70779,6.20373 -29.53424,-5.2559 -45.13419,3.72418 -61.16668,17.50907 -22.02741,18.93938 -22.03753,46.66795 -22.11036,59.29462 -0.83999,14.38261 8.58087,37.902 20.61186,52.63009 21.61269,26.45779 42.83503,31.29036 60.06937,31.29036 16.18852,0 30.94955,-7.07088 32.53447,-5.8168 2.17079,1.71766 -0.0788,14.32421 -1.87423,22.28903 -3.32841,14.76551 -11.23415,32.32947 -19.43907,48.91897 -6.3672,12.59632 -12.40724,22.04548 -21.8591,34.50271 z"
         id="path7"
         sodipodi:nodetypes="cccczzssssssssscc" /><path
         style="fill:#636363"
         d="m -265.75184,584.01427 c -3.49457,-0.37527 -8.19182,-1.38023 -10.43833,-2.23324 -2.24651,-0.85302 -11.02833,-5.08449 -19.51515,-9.40327 -8.48682,-4.31878 -18.58579,-9.54596 -22.44215,-11.61595 -3.85637,-2.06999 -10.74614,-5.69248 -15.3106,-8.04998 -4.56446,-2.35749 -12.59053,-6.98675 -17.8357,-10.28724 -5.24517,-3.30049 -11.63024,-7.23136 -14.18904,-8.73527 -2.5588,-1.5039 -5.46642,-3.28958 -6.46136,-3.96818 -1.77383,-1.20982 -1.77672,-1.29773 -0.14842,-4.52267 0.91332,-1.80888 2.84177,-4.69742 4.28545,-6.41898 1.44368,-1.72156 3.42773,-4.89908 4.40901,-7.06116 0.98127,-2.16208 4.00868,-6.93926 6.72758,-10.61596 2.71889,-3.67671 6.86423,-10.54263 9.21185,-15.25762 2.34762,-4.71499 5.69235,-12.23753 7.43273,-16.71677 1.74038,-4.47924 5.19901,-14.5093 7.68583,-22.28903 3.74016,-11.70064 4.56559,-15.49138 4.77667,-21.93653 0.14035,-4.28537 0.51506,-8.18872 0.83269,-8.67412 0.31764,-0.4854 3.13951,-1.15265 6.27084,-1.48277 3.13132,-0.33012 8.75674,-1.58355 12.50093,-2.7854 3.74418,-1.20185 10.69394,-4.05787 15.4439,-6.34672 4.74996,-2.28885 11.07174,-6.01461 14.04841,-8.27948 2.97666,-2.26487 6.89212,-5.96738 8.701,-8.2278 1.80889,-2.26042 5.27451,-7.26251 7.70137,-11.11577 2.42687,-3.85325 5.30203,-9.32367 6.38924,-12.15649 1.08722,-2.83282 2.48958,-8.15951 3.11636,-11.83709 0.64196,-3.76665 1.87297,-7.56707 2.81904,-8.70301 0.9237,-1.10907 4.02992,-3.25758 6.90271,-4.77445 2.87279,-1.51688 9.30783,-5.48137 14.30007,-8.80998 4.99225,-3.3286 12.14024,-8.18975 15.88443,-10.80255 3.74418,-2.61279 10.20969,-7.46242 14.3678,-10.77694 4.15811,-3.31452 9.46805,-7.48753 11.79986,-9.27335 2.33181,-1.78582 8.52845,-6.20275 13.77031,-9.8154 5.24186,-3.61265 14.20776,-9.57763 19.92422,-13.25551 6.86097,-4.41424 11.25716,-6.68705 12.93445,-6.68705 2.33308,0 2.5409,0.26414 2.5409,3.2294 0,1.77616 0.42952,9.39515 0.95449,16.93108 0.52497,7.53594 1.51469,16.26285 2.19937,19.39314 0.68469,3.13029 2.14709,7.3617 3.24979,9.40312 1.10269,2.04142 4.16622,6.23127 6.80784,9.31079 2.64162,3.07951 6.67545,7.30411 8.96406,9.38799 2.28862,2.08389 5.1328,5.74872 6.32042,8.14407 1.18761,2.39535 2.43575,5.58078 2.77365,7.07874 0.4058,1.79896 0.13089,3.60657 -0.80978,5.3246 -0.78328,1.43057 -3.15781,3.55409 -5.27674,4.71891 -2.11892,1.16483 -4.97584,2.37897 -6.34871,2.69809 -2.32822,0.54119 -2.49612,0.88307 -2.49612,5.08264 0,3.37315 -0.56178,5.28427 -2.23983,7.61968 -1.2319,1.71449 -3.1466,4.27562 -4.25488,5.6914 -2.01505,2.57413 -2.01505,2.57413 0.42446,4.97902 1.34174,1.32269 2.43952,3.1963 2.43952,4.16357 0,0.96727 -1.37996,3.46557 -3.06657,5.55179 -2.95086,3.64999 -3.08056,4.13176 -3.43734,12.76801 -0.30594,7.40561 -0.78741,9.82614 -2.75358,13.84323 -1.61466,3.2989 -3.27184,5.30252 -5.14056,6.2152 -1.77027,0.8646 -5.13025,1.3458 -9.38351,1.34385 -3.64417,-0.002 -13.12491,-0.3946 -21.06832,-0.87318 -10.324,-0.622 -15.89804,-0.59969 -19.54652,0.0782 -3.18544,0.59189 -6.69998,2.04228 -9.34993,3.85855 -2.63846,1.80839 -6.35255,5.8691 -9.81011,10.72565 -3.06028,4.29852 -6.13907,9.11505 -6.84176,10.70342 -0.77023,1.74106 -1.27761,5.8867 -1.27761,10.43908 0,4.15312 0.41746,10.82007 0.9277,14.81544 0.51023,3.99537 1.7746,9.96471 2.80971,13.2652 1.03511,3.30049 3.20072,8.7013 4.81246,12.00179 1.61174,3.30049 5.96365,10.61709 9.6709,16.25911 4.2392,6.45157 9.22941,12.65488 13.44772,16.71677 3.68899,3.5522 7.31682,7.33642 8.06184,8.40937 1.22346,1.76197 1.19351,2.11894 -0.30939,3.68739 -0.91519,0.95511 -9.03604,5.19541 -18.04633,9.4229 -9.93903,4.66324 -22.45135,9.67819 -31.81294,12.75065 -8.48682,2.78537 -17.06441,5.63437 -19.06131,6.33112 -1.9969,0.69675 -5.87724,1.46063 -8.62297,1.69751 -2.74574,0.23688 -7.85144,0.12366 -11.34602,-0.2516 z M -382.14876,408.99383 c -8.57654,-1.15661 -16.09672,-4.71001 -23.17846,-8.95889 -9.54067,-5.72419 -24.52998,-20.88037 -25.15466,-21.7578 -7.82986,-10.44558 -13.46937,-22.26904 -14.98331,-35.1915 -1.26366,-11.34266 1.81556,-21.69561 6.97662,-31.69539 4.72437,-9.06453 6.57484,-11.65148 12.00798,-16.78712 3.53262,-3.33918 8.36584,-7.13862 10.7405,-8.44321 2.37466,-1.30458 7.07191,-3.29009 10.43834,-4.41224 4.68692,-1.56232 8.04047,-2.04451 14.31551,-2.05835 7.46978,-0.0165 8.76353,0.23936 14.62423,2.89204 3.63331,1.64451 8.05644,4.50926 10.1705,6.58718 2.05756,2.02238 4.21023,5.01982 4.78371,6.66098 0.70888,2.02863 0.80074,5.06578 0.28693,9.48664 -0.41567,3.57649 -0.63889,12.06038 -0.49604,18.85309 0.21904,10.41525 0.60498,13.30318 2.46314,18.43131 1.21187,3.34451 2.79796,9.24446 3.52464,13.11099 0.72668,3.86653 1.5982,8.07228 1.93671,9.34611 0.61548,2.31607 -3.0567,2.01093 -5.12027,1.88413 -3.70958,-0.22795 -7.17505,-0.67365 -10.68065,-1.45026 -3.27379,-0.72525 -6.60262,-1.49903 -9.59785,-2.98153 -3.08714,-1.52799 -5.86668,-3.66195 -8.39121,-5.9765 -2.72052,-2.49424 -5.48923,-5.14758 -7.1558,-8.41065 -1.95367,-3.8252 -2.86486,-8.20968 -3.02269,-12.48311 -0.18159,-4.91655 0.58968,-9.98343 2.40903,-14.56986 0.92718,-2.33734 5.13773,-3.95289 4.21336,-6.29129 -0.40149,-1.01565 -2.12023,-0.79324 -3.23295,-0.81654 -1.94824,-0.0408 -3.91719,0.46246 -5.71782,1.19143 -1.86144,0.75358 -3.63632,1.83237 -5.07228,3.21476 -1.59455,1.53507 -2.91191,3.41892 -3.73934,5.45241 -1.2673,3.11453 -1.63462,6.56578 -1.70617,9.91733 -0.0799,3.74323 0.40165,7.53852 1.43116,11.14452 1.22905,4.3049 2.89996,8.62921 5.58579,12.2448 4.78947,6.44745 11.1935,11.86636 18.1525,16.00988 4.28021,2.54852 9.27226,3.7614 14.06906,5.17771 4.45826,1.31635 9.10531,1.92814 13.61399,3.06828 1.79016,0.45269 5.26985,0.97474 5.33179,1.49694 0.088,0.74262 0.1269,9.03932 -1.13224,13.64103 -4.01075,9.71714 -18.32577,13.87088 -28.69375,12.47268 z m 50.87595,-9.20351 c -2.08926,-0.92513 -5.05057,-2.55623 -6.58069,-3.62467 -2.78204,-1.94262 -2.78204,-1.94262 -2.8154,-13.56887 -0.0183,-6.39444 -0.56962,-14.24329 -1.22505,-17.44189 -0.65542,-3.19861 -0.94011,-5.96249 -0.63263,-6.14197 0.30747,-0.17948 2.59469,0.0867 5.08269,0.59157 2.488,0.50484 11.26317,0.92336 19.50038,0.93005 10.23662,0.008 17.84954,-0.46179 24.05355,-1.48531 4.99225,-0.82362 13.17552,-2.81819 18.18504,-4.43238 5.00952,-1.6142 9.40043,-2.9349 9.75757,-2.9349 0.35715,0 0.64935,0.5457 0.64935,1.21266 0,0.66696 -1.28487,4.39053 -2.85527,8.2746 -1.5704,3.88406 -5.24841,10.441 -8.17334,14.57097 -2.92494,4.12997 -7.30532,9.18271 -9.73417,11.2283 -2.42886,2.0456 -6.6812,5.00033 -9.44965,6.56608 -2.76845,1.56574 -8.02941,3.84268 -11.69103,5.05986 -4.09247,1.3604 -9.28034,2.34114 -13.46509,2.5455 -5.3938,0.26342 -7.59652,-0.0169 -10.60626,-1.3496 z m 0.62176,-51.22908 c -1.24806,-0.1822 -4.0032,-0.54237 -6.12253,-0.80038 -2.17796,-0.26514 -5.00389,-1.38346 -6.49961,-2.57213 -1.45546,-1.15667 -3.29882,-3.91175 -4.09636,-6.12242 -0.79754,-2.21066 -1.71612,-7.85353 -2.04128,-12.53971 -0.59121,-8.52033 -0.59121,-8.52033 2.5036,-8.01742 1.70214,0.2766 5.75825,0.75232 9.01356,1.05716 4.48758,0.42023 7.88955,0.11304 14.06906,-1.2704 4.48267,-1.00357 13.8687,-3.97999 20.85784,-6.61429 6.98915,-2.63429 15.40439,-6.06836 18.70054,-7.63125 3.29615,-1.5629 10.75422,-5.55741 16.5735,-8.87669 5.81928,-3.31928 16.80572,-10.36034 24.41432,-15.6468 7.6086,-5.28645 18.93953,-13.12387 25.17984,-17.41647 6.24031,-4.2926 14.40944,-9.67569 18.15362,-11.96241 3.74419,-2.28673 10.48372,-6.01192 14.97674,-8.27822 4.49303,-2.26629 12.97968,-6.06835 18.85923,-8.44902 5.87955,-2.38067 12.08117,-4.32849 13.78137,-4.32849 2.54154,0 3.64695,0.64792 6.2159,3.6434 1.71854,2.00387 3.83532,4.9641 4.70394,6.57829 0.86862,1.61419 1.93879,5.63872 2.37814,8.9434 0.63127,4.74828 0.52604,6.40169 -0.50173,7.88315 -0.71529,1.03105 -3.67476,3.13518 -6.57659,4.67584 -2.90182,1.54066 -12.94629,7.58428 -22.32103,13.43027 -9.37474,5.84598 -19.22635,12.44779 -21.89245,14.67067 -2.66611,2.22289 -8.41464,6.9349 -12.77453,10.47114 -4.35988,3.53624 -13.68176,10.38851 -20.71527,15.22726 -7.03351,4.83875 -14.85448,9.94893 -17.37991,11.35596 -2.52544,1.40703 -7.24668,4.10195 -10.49164,5.98872 -3.24496,1.88677 -9.32345,5.01658 -13.50775,6.95514 -4.63385,2.14683 -12.26251,4.61841 -19.51514,6.32264 -10.47887,2.46234 -13.8129,2.84937 -27.79175,3.22617 -8.73643,0.23549 -16.90556,0.27909 -18.15363,0.0969 z m -15.43058,-40.85227 c -2.02778,-0.96884 -2.27499,-1.62874 -2.32362,-6.20257 -0.0387,-3.63932 -2.10957,-8.11199 -3.00896,-12.3077 -0.89939,-4.19571 -2.89453,-7.77505 -2.37367,-12.85905 0.31949,-3.11836 1.19828,-7.77275 1.95287,-10.34308 0.75459,-2.57034 3.11889,-8.20401 5.254,-12.51926 2.13511,-4.31525 5.52656,-10.12057 7.53655,-12.9007 2.00999,-2.78013 6.29096,-7.87254 9.51326,-11.31647 3.22231,-3.44392 9.49638,-9.13214 13.94238,-12.64048 4.69541,-3.70514 11.79556,-8.19418 16.93951,-10.70994 4.87073,-2.38214 11.54056,-5.28555 14.82185,-6.45203 3.28129,-1.16648 11.9583,-3.12026 19.28225,-4.34173 11.75383,-1.96028 14.86054,-2.16219 26.47765,-1.72082 7.23876,0.27502 16.10443,1.06714 19.7015,1.76027 3.59706,0.69312 10.41762,2.63186 15.15678,4.30831 4.73917,1.67644 12.34381,4.59714 16.89921,6.49045 4.5554,1.89331 10.69357,4.98873 13.64037,6.87873 2.9468,1.88999 5.74755,4.12413 6.2239,4.96476 0.47634,0.84063 0.58824,1.941 0.24865,2.44528 -0.33958,0.50428 -6.30752,3.47862 -13.26208,6.60964 -6.95456,3.13103 -16.75752,8.07036 -21.78435,10.9763 -5.02684,2.90595 -14.85809,9.13603 -21.84724,13.84464 -6.98914,4.70861 -14.13713,9.60486 -15.88442,10.88054 -1.74729,1.27569 -8.07836,5.73082 -14.06906,9.90029 -5.9907,4.16947 -16.52992,10.73477 -23.4205,14.58956 -6.89059,3.85479 -15.6724,8.27013 -19.51515,9.81186 -3.84275,1.54174 -10.19705,4.10285 -14.12067,5.69136 -3.92362,1.58851 -10.04226,3.6494 -13.59697,4.57975 -3.83141,1.00277 -9.24254,1.68641 -13.28898,1.67892 -3.75422,-0.007 -7.847,-0.50053 -9.09506,-1.09683 z"
         id="path6"
         sodipodi:nodetypes="sssssssssssssssssssssssssssssssssssssssssssssssssssssscssssssssssssssssssssassssssssssssssssaaaaaaaaaaaaaaaaassssssssscssssssssssssssssssssssssssssssssssssssssssssssssssssssssssssssssssssssssss" /></g></g></svg>
